<svg width="40" height="41" viewBox="0 0 40 41" fill="none" xmlns="http://www.w3.org/2000/svg">
<mask id="mask0_7757_49" style="mask-type:luminance" maskUnits="userSpaceOnUse" x="0" y="0" width="40" height="41">
<path fill-rule="evenodd" clip-rule="evenodd" d="M0 0.734375H40V40.7344H0V0.734375Z" fill="white"/>
</mask>
<g mask="url(#mask0_7757_49)">
<path fill-rule="evenodd" clip-rule="evenodd" d="M33.3169 19.3473C33.1414 18.3961 32.3854 17.7007 31.4809 17.538C30.6169 14.8045 29.2467 12.7117 27.3641 11.2662C25.5004 9.835 23.2061 9.16732 20.4784 9.27466C20.2624 8.09321 19.2296 7.19531 17.9876 7.19531C16.5836 7.19531 15.4496 8.33018 15.4496 9.72698C15.4496 9.89576 15.4705 10.0578 15.4975 10.2198C14.1205 10.7126 12.8914 11.4013 11.812 12.2857C10.1306 13.6561 8.94326 15.3648 8.24733 17.4172C7.74783 18.9024 7.54533 20.4883 7.64658 22.17C6.91083 22.6621 6.50583 23.5668 6.68133 24.4849C6.86425 25.3896 7.55208 26.0647 8.39583 26.2672C8.35601 26.1255 8.32158 25.9837 8.29526 25.8352C8.33508 25.9837 8.38301 26.1255 8.42958 26.2747C8.84134 27.5027 9.40834 28.6031 10.1171 29.5962C10.1576 29.657 10.2048 29.7171 10.2521 29.7846C10.2993 29.846 10.3466 29.9 10.3871 29.9533C10.4546 30.0485 10.5288 30.1424 10.6038 30.2301C11.9666 31.8842 13.6879 33.0325 15.7669 33.6935C17.8391 34.3551 20.1341 34.4496 22.6586 33.9844C24.7984 33.5861 26.6682 32.8638 28.2686 31.8099C29.8474 30.7777 31.1164 29.4882 32.0749 27.9213C32.1019 27.8814 32.0891 27.8274 32.0479 27.8004L27.9102 24.917C27.8703 24.89 27.8089 24.8974 27.7819 24.944C27.1143 25.8892 26.3172 26.673 25.3789 27.2799C24.4204 27.9017 23.3748 28.3196 22.2476 28.5295C20.7018 28.8192 19.2971 28.6376 18.0416 27.9962C17.5691 27.7592 17.1439 27.4561 16.7524 27.0976C16.6788 27.0375 16.5904 26.9565 16.5026 26.862C16.4621 26.8148 16.4216 26.7601 16.3744 26.7061C15.9498 26.2672 15.5914 25.7339 15.2944 25.133C15.2674 25.0858 15.2471 25.0392 15.2201 24.9913C15.2471 25.0325 15.2748 25.079 15.3079 25.133L31.5214 22.0073C32.7567 21.7717 33.5539 20.5828 33.3169 19.3473ZM40 20.738C40 31.7828 31.0501 40.7348 20.0003 40.7348C8.95661 40.7348 0 31.7828 0 20.738C0 9.68569 8.95661 0.734375 20.0003 0.734375C31.0501 0.734375 40 9.68569 40 20.738ZM25.1438 18.6171L14.2756 20.7032C14.2688 19.1093 14.6671 17.7658 15.4636 16.6721C16.2878 15.5521 17.4346 14.8567 18.9196 14.5793C20.4924 14.2897 21.8424 14.532 22.9771 15.3023C24.0564 16.0443 24.7793 17.1515 25.1438 18.6171Z" fill="white"/>
</g>
</svg>
