<svg width="11" height="13" viewBox="0 0 11 13" fill="none" xmlns="http://www.w3.org/2000/svg">
<path d="M5.49909 12.9215C5.49931 12.9215 5.49952 12.9214 5.49973 12.9214C5.49994 12.9214 5.50014 12.9215 5.50035 12.9215C5.64013 12.9215 5.77826 12.9143 5.91445 12.9004C8.54342 12.6878 10.6186 10.4847 10.6186 7.80194C10.6186 5.70427 9.35288 3.84623 7.4347 3.06787L8.06751 2.27691C8.07162 2.27175 8.07369 2.26559 8.07736 2.26018C8.07895 2.25788 8.08181 2.25697 8.08332 2.25459C8.08533 2.25144 8.08484 2.24752 8.0867 2.24431C8.10595 2.21106 8.11867 2.17525 8.12178 2.13768C8.12215 2.13306 8.1213 2.1288 8.12143 2.12417C8.12259 2.0858 8.1165 2.04726 8.10019 2.01106C8.09975 2.01009 8.10005 2.00897 8.09961 2.00801L8.09839 2.0054L7.27006 0.226505C7.22793 0.13607 7.13712 0.078125 7.03728 0.078125H3.96315C3.8633 0.078125 3.7725 0.13607 3.73037 0.226505L2.90235 2.00472C2.90227 2.00487 2.90215 2.00497 2.90208 2.00513C2.90198 2.0053 2.902 2.00551 2.9019 2.00569L2.90082 2.00801C2.90041 2.00886 2.9007 2.00984 2.90032 2.01069C2.88383 2.04716 2.87764 2.08603 2.8789 2.12469C2.87904 2.12904 2.87822 2.13306 2.87857 2.13741C2.88165 2.17502 2.89434 2.21085 2.91369 2.24419C2.91557 2.24744 2.91508 2.25142 2.91711 2.25459C2.91866 2.25701 2.92158 2.25793 2.92318 2.26027C2.92681 2.26561 2.92884 2.2717 2.93292 2.2768L3.56311 3.06586C1.64693 3.84536 0.382812 5.70381 0.382812 7.80194C0.382813 10.6249 2.67807 12.9215 5.49909 12.9215ZM4.19126 3.02925C4.18513 3.02111 4.17957 3.01315 4.17259 3.00588L3.6674 2.37338H7.33228L5.49834 4.66573L4.19126 3.02925ZM5.50035 5.33399C7.45043 5.33399 9.03703 6.92059 9.03703 8.87094C9.03703 10.699 7.64284 12.2076 5.86201 12.3894C5.7421 12.3988 5.62202 12.4077 5.49973 12.4077C3.54967 12.4074 1.9634 10.8209 1.9634 8.87094C1.9634 6.92059 3.55 5.33399 5.50035 5.33399ZM10.1049 7.80194C10.1049 8.84038 9.75533 9.79639 9.17333 10.5676C9.41309 10.0507 9.55076 9.47723 9.55076 8.87094C9.55076 6.80855 8.00038 5.10471 6.00475 4.85513L7.0969 3.49004C8.90206 4.15405 10.1049 5.86323 10.1049 7.80194ZM4.12696 0.591858H6.87347L7.46398 1.85963H3.53645L4.12696 0.591858ZM3.90041 3.48821L4.99251 4.85563C2.99831 5.10674 1.44967 6.80973 1.44967 8.87094C1.44967 9.47675 1.58711 10.0498 1.82652 10.5664C1.24549 9.79537 0.896545 8.83984 0.896545 7.80194C0.896545 5.86288 2.09757 4.15349 3.90041 3.48821Z" fill="#212121"/>
</svg>
