<svg width="13" height="14" viewBox="0 0 13 14" fill="none" xmlns="http://www.w3.org/2000/svg">
<path d="M4 3.75V6.24937H5.875V3.75H7.125V6.24937H9V3.75H10.25V6.24937L10.875 6.25C11.3532 6.24998 11.8134 6.43269 12.1614 6.76081C12.5094 7.08887 12.7188 7.53756 12.7469 8.015L12.75 8.125V8.75C12.75 9.38375 12.5144 9.9625 12.1256 10.4031L12.125 13.125C12.125 13.2907 12.0591 13.4497 11.9419 13.5669C11.8247 13.6841 11.6657 13.75 11.5 13.75H1.5C1.33424 13.75 1.17527 13.6841 1.05806 13.5669C0.94085 13.4497 0.875 13.2907 0.875 13.125V10.4C0.539169 10.0174 0.327338 9.54181 0.2675 9.03625L0.25375 8.87813L0.25 8.75V8.125C0.249975 7.64675 0.432706 7.18656 0.7608 6.83856C1.0889 6.49062 1.53757 6.28119 2.015 6.25313L2.125 6.25L2.75 6.24937V3.75H4ZM4.62625 10.4006L4.5925 10.44C4.18281 10.8873 3.62427 11.1701 3.02125 11.2356L2.8775 11.2469L2.75 11.25C2.53437 11.25 2.325 11.2225 2.125 11.1713V12.5H10.875V11.1713C10.4659 11.2764 10.0367 11.2764 9.62762 11.1712C9.2185 11.0659 8.84262 10.8589 8.535 10.5694L8.44125 10.4756L8.375 10.4025L8.30812 10.4762C7.90287 10.9017 7.36031 11.1704 6.77625 11.235L6.625 11.2475L6.5 11.25C5.84594 11.2509 5.21781 10.9941 4.75187 10.535L4.65813 10.4369L4.62625 10.4006ZM10.875 7.5H2.125C1.97192 7.5 1.82416 7.55625 1.70977 7.65794C1.59537 7.75969 1.52229 7.89981 1.50437 8.05188L1.5 8.125V8.73187L1.50187 8.82375C1.52069 9.142 1.66038 9.44106 1.89239 9.65969C2.12441 9.87831 2.43119 10.0001 2.75 10C3.04934 10.0005 3.33893 9.89356 3.56605 9.69856C3.79317 9.50356 3.94272 9.2335 3.9875 8.9375L3.99687 8.84188L4 8.73187C4.0225 7.95187 5.14188 7.92375 5.24312 8.64812L5.24937 8.73187L5.25187 8.82375C5.26938 9.14119 5.40719 9.44006 5.63725 9.65956C5.86731 9.879 6.17231 10.0025 6.49025 10.005C6.80819 10.0074 7.11513 9.88869 7.34856 9.67281C7.58206 9.457 7.72444 9.16025 7.74687 8.84313L7.75437 8.66687C7.83187 7.94437 8.91813 7.94437 8.99562 8.66687L9.00312 8.84313C9.0255 9.15856 9.16656 9.45381 9.39794 9.66937C9.62931 9.88494 9.93375 10.0048 10.25 10.0048C10.5662 10.0048 10.8707 9.88494 11.1021 9.66937C11.3334 9.45381 11.4745 9.15856 11.4969 8.84313L11.5 8.75V8.125C11.5 7.97194 11.4437 7.82419 11.3421 7.70975C11.2403 7.59538 11.1002 7.52231 10.9481 7.50437L10.875 7.5ZM3.375 0.625C4.2 1.16938 4.41438 1.93 4.28063 2.43C4.21631 2.67019 4.05921 2.87499 3.8439 2.99934C3.62859 3.12371 3.37269 3.15744 3.1325 3.09312C2.89231 3.02881 2.68751 2.87171 2.56316 2.6564C2.43879 2.44109 2.40506 2.18519 2.46938 1.945C2.65625 1.25125 3.375 1.5625 3.375 0.625ZM6.5 0.625C7.325 1.16938 7.53938 1.93 7.40563 2.43C7.34131 2.67019 7.18419 2.87499 6.96887 2.99934C6.75356 3.12371 6.49769 3.15744 6.2575 3.09312C6.01731 3.02881 5.8125 2.87171 5.68813 2.6564C5.56381 2.44109 5.53006 2.18519 5.59437 1.945C5.78125 1.25125 6.5 1.5625 6.5 0.625ZM9.625 0.625C10.45 1.16938 10.6644 1.93 10.5306 2.43C10.4663 2.67019 10.3092 2.87499 10.0939 2.99934C9.87856 3.12371 9.62269 3.15744 9.3825 3.09312C9.14231 3.02881 8.9375 2.87171 8.81313 2.6564C8.68881 2.44109 8.65506 2.18519 8.71937 1.945C8.90625 1.25125 9.625 1.5625 9.625 0.625Z" fill="#212121"/>
</svg>
