<svg width="28" height="33" viewBox="0 0 28 33" fill="none" xmlns="http://www.w3.org/2000/svg">
<path fill-rule="evenodd" clip-rule="evenodd" d="M24.0052 22.6719V14.3385C24.0052 9.22188 21.2885 4.93854 16.5052 3.80521V2.67188C16.5052 1.28854 15.3885 0.171875 14.0052 0.171875C12.6219 0.171875 11.5052 1.28854 11.5052 2.67188V3.80521C6.73854 4.93854 4.00521 9.20521 4.00521 14.3385V22.6719L0.671875 26.0052V27.6719H27.3385V26.0052L24.0052 22.6719ZM14.0052 32.6771C15.8385 32.6771 17.3385 31.1771 17.3385 29.3438H10.6719C10.6719 31.1771 12.1719 32.6771 14.0052 32.6771ZM7.34375 24.3438H20.6771V14.3438C20.6771 10.2104 18.1604 6.84375 14.0104 6.84375C9.86042 6.84375 7.34375 10.2104 7.34375 14.3438V24.3438Z" fill="white"/>
</svg>
