<svg width="32" height="32" viewBox="0 0 32 32" fill="none" xmlns="http://www.w3.org/2000/svg">
<path d="M29.333 26.666V29.3327H2.66634V26.666H3.99967V17.6556C2.39169 16.5794 1.33301 14.7463 1.33301 12.666C1.33301 11.5632 1.63225 10.501 2.1773 9.59596L5.79341 3.33268C6.03158 2.92015 6.47175 2.66602 6.9481 2.66602H25.0513C25.5275 2.66602 25.9678 2.92015 26.2059 3.33268L29.8097 9.57498C30.3671 10.501 30.6663 11.5632 30.6663 12.666C30.6663 14.7463 29.6077 16.5794 27.9997 17.6556V26.666H29.333ZM7.71787 5.33268L4.47431 10.9503C4.16513 11.4639 3.99967 12.0512 3.99967 12.666C3.99967 14.507 5.49206 15.9994 7.33301 15.9994C8.70762 15.9994 9.9259 15.1598 10.4287 13.9054C10.8762 12.789 12.4565 12.789 12.904 13.9054C13.4067 15.1598 14.625 15.9994 15.9997 15.9994C17.3743 15.9994 18.5926 15.1598 19.0954 13.9054C19.5429 12.789 21.1231 12.789 21.5706 13.9054C22.0734 15.1598 23.2917 15.9994 24.6663 15.9994C26.5073 15.9994 27.9997 14.507 27.9997 12.666C27.9997 12.0512 27.8342 11.4639 27.5126 10.9293L24.2814 5.33268H7.71787Z" fill="#212121"/>
</svg>
